<?xml version="1.0" standalone="no"?>
<!DOCTYPE svg PUBLIC "-//W3C//DTD SVG 20010904//EN"
 "http://www.w3.org/TR/2001/REC-SVG-20010904/DTD/svg10.dtd">
<svg version="1.0" xmlns="http://www.w3.org/2000/svg"
 width="500.000000pt" height="500.000000pt" viewBox="0 0 500.000000 500.000000"
 preserveAspectRatio="xMidYMid meet">
<metadata>
Created by potrace 1.14, written by Peter Selinger 2001-2017
</metadata>
<g transform="translate(0.000000,500.000000) scale(0.100000,-0.100000)"
fill="#000000" stroke="none">
<path d="M0 2500 l0 -2500 2500 0 2500 0 0 2500 0 2500 -2500 0 -2500 0 0
-2500z m2500 555 l0 -55 -544 0 c-487 0 -544 -2 -550 -16 -11 -28 -7 -624 4
-645 10 -18 24 -19 320 -19 l310 0 88 79 c48 43 233 215 412 381 179 166 334
305 345 309 22 9 715 13 758 4 l27 -5 0 -424 0 -424 -383 0 -383 0 -205 -197
c-112 -108 -282 -273 -376 -365 l-173 -168 0 -328 c0 -242 3 -331 12 -340 17
-17 649 -17 666 0 9 9 12 83 12 273 l0 262 -37 24 c-73 47 -96 133 -57 211 64
125 268 88 289 -53 9 -61 -11 -106 -69 -154 l-46 -37 0 -309 0 -309 -424 0
c-354 0 -425 2 -429 14 -8 21 -7 715 1 760 6 34 47 77 397 416 l390 379 357 0
c218 1 359 5 363 11 8 13 9 656 0 669 -4 8 -109 11 -331 11 l-325 0 -117 -108
c-64 -60 -252 -233 -416 -385 l-299 -277 -384 0 -383 0 0 435 0 435 590 0 590
0 0 -55z"/>
<path d="M2836 1584 c-38 -37 -27 -96 20 -114 67 -26 125 59 74 110 -24 24
-72 26 -94 4z"/>
</g>
</svg>
